<svg width="24" height="27" viewBox="0 0 24 27" fill="none" xmlns="http://www.w3.org/2000/svg">
<path d="M12 16.5151C11.6543 16.5151 11.3597 16.3933 11.1163 16.1498C10.8729 15.9062 10.7511 15.6115 10.7511 15.2656C10.7511 14.9197 10.8729 14.625 11.1163 14.3815C11.3597 14.1379 11.6543 14.0161 12 14.0161C12.3457 14.0161 12.6403 14.1379 12.8837 14.3815C13.1271 14.625 13.2488 14.9197 13.2488 15.2656C13.2488 15.6115 13.1271 15.9062 12.8837 16.1498C12.6403 16.3933 12.3457 16.5151 12 16.5151ZM6.35292 16.5151C6.00723 16.5151 5.71266 16.3933 5.46923 16.1498C5.22579 15.9062 5.10407 15.6115 5.10407 15.2656C5.10407 14.9197 5.22579 14.625 5.46923 14.3815C5.71266 14.1379 6.00723 14.0161 6.35292 14.0161C6.69862 14.0161 6.99318 14.1379 7.23662 14.3815C7.48006 14.625 7.60177 14.9197 7.60177 15.2656C7.60177 15.6115 7.48006 15.9062 7.23662 16.1498C6.99318 16.3933 6.69862 16.5151 6.35292 16.5151ZM17.6471 16.5151C17.3014 16.5151 17.0068 16.3933 16.7634 16.1498C16.5199 15.9062 16.3982 15.6115 16.3982 15.2656C16.3982 14.9197 16.5199 14.625 16.7634 14.3815C17.0068 14.1379 17.3014 14.0161 17.6471 14.0161C17.9928 14.0161 18.2873 14.1379 18.5308 14.3815C18.7742 14.625 18.8959 14.9197 18.8959 15.2656C18.8959 15.6115 18.7742 15.9062 18.5308 16.1498C18.2873 16.3933 17.9928 16.5151 17.6471 16.5151ZM12 22.0564C11.6543 22.0564 11.3597 21.9346 11.1163 21.691C10.8729 21.4475 10.7511 21.1527 10.7511 20.8069C10.7511 20.461 10.8729 20.1663 11.1163 19.9227C11.3597 19.6792 11.6543 19.5574 12 19.5574C12.3457 19.5574 12.6403 19.6792 12.8837 19.9227C13.1271 20.1663 13.2488 20.461 13.2488 20.8069C13.2488 21.1527 13.1271 21.4475 12.8837 21.691C12.6403 21.9346 12.3457 22.0564 12 22.0564ZM6.35292 22.0564C6.00723 22.0564 5.71266 21.9346 5.46923 21.691C5.22579 21.4475 5.10407 21.1527 5.10407 20.8069C5.10407 20.461 5.22579 20.1663 5.46923 19.9227C5.71266 19.6792 6.00723 19.5574 6.35292 19.5574C6.69862 19.5574 6.99318 19.6792 7.23662 19.9227C7.48006 20.1663 7.60177 20.461 7.60177 20.8069C7.60177 21.1527 7.48006 21.4475 7.23662 21.691C6.99318 21.9346 6.69862 22.0564 6.35292 22.0564ZM17.6471 22.0564C17.3014 22.0564 17.0068 21.9346 16.7634 21.691C16.5199 21.4475 16.3982 21.1527 16.3982 20.8069C16.3982 20.461 16.5199 20.1663 16.7634 19.9227C17.0068 19.6792 17.3014 19.5574 17.6471 19.5574C17.9928 19.5574 18.2873 19.6792 18.5308 19.9227C18.7742 20.1663 18.8959 20.461 18.8959 20.8069C18.8959 21.1527 18.7742 21.4475 18.5308 21.691C18.2873 21.9346 17.9928 22.0564 17.6471 22.0564ZM2.03623 27C1.4826 27 1.00483 26.7989 0.602895 26.3968C0.200965 25.9947 0 25.5167 0 24.9627V4.50909C0 3.95519 0.200965 3.47717 0.602895 3.07504C1.00483 2.67291 1.4826 2.47184 2.03623 2.47184H4.64257V0H6.42083V2.47184H17.6335V0H19.371V2.47184H21.9638C22.5174 2.47184 22.9952 2.67291 23.3971 3.07504C23.799 3.47717 24 3.95519 24 4.50909V24.9627C24 25.5167 23.799 25.9947 23.3971 26.3968C22.9952 26.7989 22.5174 27 21.9638 27H2.03623ZM2.03623 25.3974H21.9638C22.0724 25.3974 22.1719 25.3521 22.2625 25.2616C22.353 25.171 22.3982 25.0714 22.3982 24.9627V10.9331H1.60179V24.9627C1.60179 25.0714 1.64704 25.171 1.73753 25.2616C1.82805 25.3521 1.92762 25.3974 2.03623 25.3974Z" fill="#7682A0"/>
</svg>
