<svg width="20" height="25" viewBox="0 0 20 25" fill="none" xmlns="http://www.w3.org/2000/svg">
<path d="M10 12.1875C10.6042 12.1875 11.1198 11.974 11.5469 11.5469C11.974 11.1198 12.1875 10.6042 12.1875 10C12.1875 9.39583 11.974 8.88021 11.5469 8.45312C11.1198 8.02604 10.6042 7.8125 10 7.8125C9.39583 7.8125 8.88021 8.02604 8.45312 8.45312C8.02604 8.88021 7.8125 9.39583 7.8125 10C7.8125 10.6042 8.02604 11.1198 8.45312 11.5469C8.88021 11.974 9.39583 12.1875 10 12.1875ZM10 25C6.64583 22.1458 4.14062 19.4948 2.48438 17.0469C0.828125 14.599 0 12.3333 0 10.25C0 7.125 1.00521 4.63542 3.01562 2.78125C5.02604 0.927083 7.35417 0 10 0C12.6458 0 14.974 0.927083 16.9844 2.78125C18.9948 4.63542 20 7.125 20 10.25C20 12.3333 19.1719 14.599 17.5156 17.0469C15.8594 19.4948 13.3542 22.1458 10 25Z" fill="#ACB3C5"/>
</svg>
